<svg version="1.1" viewBox="0.0 0.0 273.1706036745407 126.22047244094489" fill="none" stroke="none" stroke-linecap="square" stroke-miterlimit="10" xmlns:xlink="http://www.w3.org/1999/xlink" xmlns="http://www.w3.org/2000/svg"><clipPath id="p.0"><path d="m0 0l273.1706 0l0 126.220474l-273.1706 0l0 -126.220474z" clip-rule="nonzero"/></clipPath><g clip-path="url(#p.0)"><path fill="#000000" fill-opacity="0.0" d="m0 0l273.1706 0l0 126.220474l-273.1706 0z" fill-rule="evenodd"/><path fill="#000000" d="m197.85695 92.801834l0 0c0 -3.1049652 2.5170898 -5.6220474 5.622055 -5.6220474l0 0c1.4910583 0 2.921051 0.5923233 3.9753876 1.6466599c1.0543365 1.0543442 1.6466522 2.4843292 1.6466522 3.9753876l0 0c0 3.1049728 -2.5170746 5.6220474 -5.62204 5.6220474l0 0c-3.1049652 0 -5.622055 -2.5170746 -5.622055 -5.6220474z" fill-rule="evenodd"/><path stroke="#000000" stroke-width="1.0" stroke-linejoin="round" stroke-linecap="butt" d="m197.85695 92.801834l0 0c0 -3.1049652 2.5170898 -5.6220474 5.622055 -5.6220474l0 0c1.4910583 0 2.921051 0.5923233 3.9753876 1.6466599c1.0543365 1.0543442 1.6466522 2.4843292 1.6466522 3.9753876l0 0c0 3.1049728 -2.5170746 5.6220474 -5.62204 5.6220474l0 0c-3.1049652 0 -5.622055 -2.5170746 -5.622055 -5.6220474z" fill-rule="evenodd"/><path fill="#000000" fill-opacity="0.0" d="m197.85695 92.801834l-150.29921 0" fill-rule="evenodd"/><path stroke="#000000" stroke-width="3.0" stroke-linejoin="round" stroke-linecap="butt" d="m197.85695 92.801834l-132.29921 0" fill-rule="evenodd"/><path fill="#000000" stroke="#000000" stroke-width="3.0" stroke-linecap="butt" d="m65.55774 87.84664l-13.614288 4.9551926l13.614288 4.9552z" fill-rule="evenodd"/><path fill="#000000" fill-opacity="0.0" d="m-0.001312336 66.92782l47.559055 0l0 51.74803l-47.559055 0z" fill-rule="evenodd"/><path fill="#000000" d="m25.602404 82.49657l0 2.140625l-9.96875 0l0 6.03125l8.75 0l0 2.140625l-8.75 0l0 8.71875l-2.53125 0l0 -19.03125l12.5 0z" fill-rule="nonzero"/><path fill="#000000" d="m36.518295 98.84032l0 1.421875l-4.234375 0l0 11.265625l-1.6874981 0l0 -11.265625l-4.234375 0l0 -1.421875l10.156248 0z" fill-rule="nonzero"/><path fill="#000000" fill-opacity="0.0" d="m267.01575 29.979002c-6.8740234 0 -10.311035 -3.968504 -13.748032 -7.937008c-3.4370117 -3.968504 -6.874008 -7.937007 -13.748032 -7.937007" fill-rule="evenodd"/><path stroke="#000000" stroke-width="3.0" stroke-linejoin="round" stroke-linecap="butt" d="m267.01575 29.979002c-6.8740234 0 -10.311035 -3.968504 -13.748032 -7.937008c-3.4370117 -3.968504 -6.874008 -7.937007 -13.748032 -7.937007" fill-rule="evenodd"/><path fill="#000000" fill-opacity="0.0" d="m212.02362 29.979002c-6.874008 0 -10.31102 -3.968504 -13.748032 -7.937008c-3.4370117 -3.968504 -6.874008 -7.937007 -13.748032 -7.937007" fill-rule="evenodd"/><path stroke="#000000" stroke-width="3.0" stroke-linejoin="round" stroke-linecap="butt" d="m212.02362 29.979002c-6.874008 0 -10.31102 -3.968504 -13.748032 -7.937008c-3.4370117 -3.968504 -6.874008 -7.937007 -13.748032 -7.937007" fill-rule="evenodd"/><path fill="#000000" fill-opacity="0.0" d="m212.02362 29.979002c6.8740234 0 10.31102 -3.968504 13.748032 -7.937008c3.4370117 -3.968504 6.8740234 -7.937007 13.748032 -7.937007" fill-rule="evenodd"/><path stroke="#000000" stroke-width="3.0" stroke-linejoin="round" stroke-linecap="butt" d="m212.02362 29.979002c6.8740234 0 10.31102 -3.968504 13.748032 -7.937008c3.4370117 -3.968504 6.8740234 -7.937007 13.748032 -7.937007" fill-rule="evenodd"/><path fill="#000000" fill-opacity="0.0" d="m157.0315 29.979002c6.8740234 0 10.31102 -3.968504 13.748032 -7.937008c3.4370117 -3.968504 6.8740234 -7.937007 13.748032 -7.937007" fill-rule="evenodd"/><path stroke="#000000" stroke-width="3.0" stroke-linejoin="round" stroke-linecap="butt" d="m157.0315 29.979002c6.8740234 0 10.31102 -3.968504 13.748032 -7.937008c3.4370117 -3.968504 6.8740234 -7.937007 13.748032 -7.937007" fill-rule="evenodd"/><path fill="#000000" fill-opacity="0.0" d="m157.0315 29.979002l-19.527557 0" fill-rule="evenodd"/><path stroke="#000000" stroke-width="3.0" stroke-linejoin="round" stroke-linecap="butt" d="m157.0315 29.979002l-9.246292 0" fill-rule="evenodd"/><path fill="#000000" stroke="#000000" stroke-width="3.0" stroke-linecap="butt" d="m147.7852 29.979002l3.3737488 -3.3737507l-9.269302 3.3737507l9.269302 3.3737507z" fill-rule="evenodd"/><path fill="#000000" fill-opacity="0.0" d="m78.48037 0l59.02363 0l0 51.74803l-59.02363 0z" fill-rule="evenodd"/><path fill="#000000" d="m102.40823 15.568748l0 2.140625l-9.96875 0l0 6.03125l8.75 0l0 2.140625l-8.75 0l0 8.71875l-2.53125 0l0 -19.03125l12.5 0z" fill-rule="nonzero"/><path fill="#000000" d="m108.73038 35.209373q1.65625 0 2.40625 0.859375q0.75 0.84375 0.75 2.421875l0 6.109375l-1.515625 0l0 -6.265625q0 -0.78125 -0.5 -1.28125q-0.5 -0.515625 -1.375 -0.515625q-1.28125 0 -2.0 0.78125q-0.71875 0.78125 -0.71875 2.03125l0 5.25l-1.5 0l0 -9.1875l1.421875 0l0 1.453125l0.03125 0q0.5 -0.859375 1.234375 -1.25q0.734375 -0.40625 1.765625 -0.40625zm9.239777 0q1.984375 0 3.0625 1.421875q1.09375 1.421875 1.09375 3.65625l0 0.171875l-6.875 0l0 0.109375q0 1.3125 0.765625 2.109375q0.765625 0.796875 2.09375 0.796875q1.015625 0 1.609375 -0.46875q0.59375 -0.46875 0.78125 -1.328125l1.484375 0q-0.296875 1.53125 -1.34375 2.34375q-1.03125 0.796875 -2.578125 0.796875q-1.453125 0 -2.453125 -0.65625q-1.0 -0.65625 -1.484375 -1.8125q-0.46875 -1.171875 -0.46875 -2.40625q0 -2.015625 1.21875 -3.375q1.234375 -1.359375 3.09375 -1.359375zm-2.71875 3.921875l5.28125 0q-0.078125 -1.125 -0.828125 -1.859375q-0.734375 -0.734375 -1.84375 -0.734375q-1.03125 0 -1.78125 0.703125q-0.734375 0.703125 -0.828125 1.890625zm10.542084 -6.46875l0 2.75l1.828125 0l0 1.34375l-1.828125 0l0 5.75q0 0.6875 0.453125 0.734375q0.453125 0.03125 0.953125 0.03125l0.421875 0l0 1.328125l-1.25 0q-1.234375 0 -1.671875 -0.4375q-0.421875 -0.453125 -0.421875 -1.484375l0 -5.921875l-1.5625 0l0 -1.34375l1.5625 0l0 -2.75l1.515625 0z" fill-rule="nonzero"/></g></svg>