<svg version="1.1" viewBox="0.0 0.0 330.5721784776903 212.10236220472441" fill="none" stroke="none" stroke-linecap="square" stroke-miterlimit="10" xmlns:xlink="http://www.w3.org/1999/xlink" xmlns="http://www.w3.org/2000/svg"><clipPath id="p.0"><path d="m0 0l330.57217 0l0 212.10236l-330.57217 0l0 -212.10236z" clip-rule="nonzero"/></clipPath><g clip-path="url(#p.0)"><path fill="#000000" fill-opacity="0.0" d="m0 0l330.57217 0l0 212.10236l-330.57217 0z" fill-rule="evenodd"/><path fill="#000000" d="m193.9462 92.801834l0 0c0 -3.1049652 2.5170746 -5.6220474 5.62204 -5.6220474l0 0c1.4910583 0 2.921051 0.5923233 3.9753876 1.6466599c1.0543365 1.0543442 1.6466675 2.4843292 1.6466675 3.9753876l0 0c0 3.1049728 -2.5170746 5.6220474 -5.622055 5.6220474l0 0c-3.1049652 0 -5.62204 -2.5170746 -5.62204 -5.6220474z" fill-rule="evenodd"/><path stroke="#000000" stroke-width="1.0" stroke-linejoin="round" stroke-linecap="butt" d="m193.9462 92.801834l0 0c0 -3.1049652 2.5170746 -5.6220474 5.62204 -5.6220474l0 0c1.4910583 0 2.921051 0.5923233 3.9753876 1.6466599c1.0543365 1.0543442 1.6466675 2.4843292 1.6466675 3.9753876l0 0c0 3.1049728 -2.5170746 5.6220474 -5.622055 5.6220474l0 0c-3.1049652 0 -5.62204 -2.5170746 -5.62204 -5.6220474z" fill-rule="evenodd"/><path fill="#000000" fill-opacity="0.0" d="m193.94719 90.726715l-148.59843 -58.866142" fill-rule="evenodd"/><path stroke="#000000" stroke-width="3.0" stroke-linejoin="round" stroke-linecap="butt" d="m193.94717 90.726715l-131.86366 -52.2368" fill-rule="evenodd"/><path fill="#000000" stroke="#000000" stroke-width="3.0" stroke-linecap="butt" d="m63.90849 33.883026l-14.482304 -0.40721512l10.832336 9.620991z" fill-rule="evenodd"/><path fill="#000000" fill-opacity="0.0" d="m-0.001312336 -0.001312336l47.559055 0l0 51.74803l-47.559055 0z" fill-rule="evenodd"/><path fill="#000000" d="m25.602404 15.567436l0 2.140625l-9.96875 0l0 6.03125l8.75 0l0 2.140625l-8.75 0l0 8.71875l-2.53125 0l0 -19.03125l12.5 0z" fill-rule="nonzero"/><path fill="#000000" d="m36.518295 31.911186l0 1.421875l-4.234375 0l0 11.265625l-1.6874981 0l0 -11.265625l-4.234375 0l0 -1.421875l10.156248 0z" fill-rule="nonzero"/><path fill="#000000" fill-opacity="0.0" d="m322.32547 29.979002c-6.8740234 0 -10.311035 -3.968504 -13.748047 -7.937008c-3.4370117 -3.968504 -6.8740234 -7.937007 -13.748016 -7.937007" fill-rule="evenodd"/><path stroke="#000000" stroke-width="3.0" stroke-linejoin="round" stroke-linecap="butt" d="m322.32547 29.979002c-6.8740234 0 -10.311035 -3.968504 -13.748047 -7.937008c-3.4370117 -3.968504 -6.8740234 -7.937007 -13.748016 -7.937007" fill-rule="evenodd"/><path fill="#000000" fill-opacity="0.0" d="m267.33334 29.979002c-6.8740234 0 -10.311035 -3.968504 -13.748047 -7.937008c-3.4369965 -3.968504 -6.874008 -7.937007 -13.748032 -7.937007" fill-rule="evenodd"/><path stroke="#000000" stroke-width="3.0" stroke-linejoin="round" stroke-linecap="butt" d="m267.33334 29.979002c-6.8740234 0 -10.311035 -3.968504 -13.748047 -7.937008c-3.4369965 -3.968504 -6.874008 -7.937007 -13.748032 -7.937007" fill-rule="evenodd"/><path fill="#000000" fill-opacity="0.0" d="m267.33334 29.979002c6.873993 0 10.311005 -3.968504 13.748016 -7.937008c3.4370117 -3.968504 6.8740234 -7.937007 13.748047 -7.937007" fill-rule="evenodd"/><path stroke="#000000" stroke-width="3.0" stroke-linejoin="round" stroke-linecap="butt" d="m267.33334 29.979002c6.873993 0 10.311005 -3.968504 13.748016 -7.937008c3.4370117 -3.968504 6.8740234 -7.937007 13.748047 -7.937007" fill-rule="evenodd"/><path fill="#000000" fill-opacity="0.0" d="m212.3412 29.979002c6.8740234 0 10.311035 -3.968504 13.748032 -7.937008c3.4370117 -3.968504 6.8740234 -7.937007 13.748032 -7.937007" fill-rule="evenodd"/><path stroke="#000000" stroke-width="3.0" stroke-linejoin="round" stroke-linecap="butt" d="m212.3412 29.979002c6.8740234 0 10.311035 -3.968504 13.748032 -7.937008c3.4370117 -3.968504 6.8740234 -7.937007 13.748032 -7.937007" fill-rule="evenodd"/><path fill="#000000" fill-opacity="0.0" d="m212.3412 29.979002l-19.527557 0" fill-rule="evenodd"/><path stroke="#000000" stroke-width="3.0" stroke-linejoin="round" stroke-linecap="butt" d="m212.3412 29.979002l-9.246307 0" fill-rule="evenodd"/><path fill="#000000" stroke="#000000" stroke-width="3.0" stroke-linecap="butt" d="m203.09491 29.979002l3.3737488 -3.3737507l-9.269302 3.3737507l9.269302 3.3737507z" fill-rule="evenodd"/><path fill="#000000" fill-opacity="0.0" d="m133.79008 0l59.02362 0l0 51.74803l-59.02362 0z" fill-rule="evenodd"/><path fill="#000000" d="m157.71794 15.568748l0 2.140625l-9.96875 0l0 6.03125l8.75 0l0 2.140625l-8.75 0l0 8.71875l-2.53125 0l0 -19.03125l12.5 0z" fill-rule="nonzero"/><path fill="#000000" d="m164.04008 35.209373q1.65625 0 2.40625 0.859375q0.75 0.84375 0.75 2.421875l0 6.109375l-1.515625 0l0 -6.265625q0 -0.78125 -0.5 -1.28125q-0.5 -0.515625 -1.375 -0.515625q-1.28125 0 -2.0 0.78125q-0.71875 0.78125 -0.71875 2.03125l0 5.25l-1.5 0l0 -9.1875l1.421875 0l0 1.453125l0.03125 0q0.5 -0.859375 1.234375 -1.25q0.734375 -0.40625 1.765625 -0.40625zm9.239777 0q1.984375 0 3.0625 1.421875q1.09375 1.421875 1.09375 3.65625l0 0.171875l-6.875 0l0 0.109375q0 1.3125 0.765625 2.109375q0.765625 0.796875 2.09375 0.796875q1.015625 0 1.609375 -0.46875q0.59375 -0.46875 0.78125 -1.328125l1.484375 0q-0.296875 1.53125 -1.34375 2.34375q-1.03125 0.796875 -2.578125 0.796875q-1.453125 0 -2.453125 -0.65625q-1.0 -0.65625 -1.484375 -1.8125q-0.46875 -1.171875 -0.46875 -2.40625q0 -2.015625 1.21875 -3.375q1.234375 -1.359375 3.09375 -1.359375zm-2.71875 3.921875l5.28125 0q-0.078125 -1.125 -0.828125 -1.859375q-0.734375 -0.734375 -1.84375 -0.734375q-1.03125 0 -1.78125 0.703125q-0.734375 0.703125 -0.828125 1.890625zm10.542084 -6.46875l0 2.75l1.828125 0l0 1.34375l-1.828125 0l0 5.75q0 0.6875 0.453125 0.734375q0.453125 0.03125 0.953125 0.03125l0.421875 0l0 1.328125l-1.25 0q-1.234375 0 -1.671875 -0.4375q-0.421875 -0.453125 -0.421875 -1.484375l0 -5.921875l-1.5625 0l0 -1.34375l1.5625 0l0 -2.75l1.515625 0z" fill-rule="nonzero"/><path fill="#000000" fill-opacity="0.0" d="m199.56824 98.42388l0 71.40157" fill-rule="evenodd"/><path stroke="#000000" stroke-width="3.0" stroke-linejoin="round" stroke-linecap="butt" d="m199.56824 98.42388l0 53.401573" fill-rule="evenodd"/><path fill="#000000" stroke="#000000" stroke-width="3.0" stroke-linecap="butt" d="m194.61304 151.82545l4.9552 13.614304l4.9552 -13.614304z" fill-rule="evenodd"/><path fill="#000000" fill-opacity="0.0" d="m193.9462 92.801834l-94.11024 0" fill-rule="evenodd"/><path stroke="#000000" stroke-width="2.0" stroke-linejoin="round" stroke-linecap="butt" stroke-dasharray="8.0,6.0" d="m193.9462 92.801834l-94.11024 0" fill-rule="evenodd"/><path fill="#000000" fill-opacity="0.0" d="m175.78871 160.45013l47.55905 0l0 51.74803l-47.55905 0z" fill-rule="evenodd"/><path fill="#000000" d="m201.39243 176.01888l0 2.140625l-9.96875 0l0 6.03125l8.75 0l0 2.140625l-8.75 0l0 8.71875l-2.53125 0l0 -19.03125l12.5 0z" fill-rule="nonzero"/><path fill="#000000" d="m206.99582 195.6595q0.96875 0 1.671875 0.421875q0.703125 0.40625 1.078125 1.09375l0.015625 0l0 -1.3125l1.421875 0l0 8.5q0 2.15625 -1.046875 3.28125q-1.046875 1.140625 -3.203125 1.140625q-1.578125 0 -2.671875 -0.703125q-1.078125 -0.6875 -1.140625 -2.0l1.5 0q0.046875 0.703125 0.75 1.09375q0.71875 0.40625 1.640625 0.40625q1.328125 0 2.03125 -0.890625q0.71875 -0.890625 0.71875 -2.625l0 -0.578125l-0.03125 0q-0.359375 0.765625 -1.125 1.21875q-0.765625 0.453125 -1.75 0.453125q-1.859375 0 -2.984375 -1.28125q-1.109375 -1.296875 -1.109375 -3.375q0 -2.109375 1.109375 -3.46875q1.125 -1.375 3.125 -1.375zm-2.640625 4.65625q0 1.640625 0.6875 2.578125q0.6875 0.9375 1.90625 0.9375q1.25 0 1.984375 -0.96875q0.75 -0.96875 0.75 -2.59375q0 -1.46875 -0.6875 -2.375q-0.6875 -0.90625 -1.9375 -0.90625q-1.265625 0 -1.984375 0.90625q-0.71875 0.90625 -0.71875 2.421875z" fill-rule="nonzero"/><path fill="#000000" fill-opacity="0.0" d="m135.59778 68.120735c-3.9033813 7.8067856 -6.5339813 16.95102 -5.448807 25.61155" fill-rule="evenodd"/><path stroke="#000000" stroke-width="2.0" stroke-linejoin="round" stroke-linecap="butt" d="m135.59778 68.120735c-3.9033813 7.8067856 -6.5339813 16.95102 -5.448807 25.61155" fill-rule="evenodd"/><path fill="#000000" fill-opacity="0.0" d="m99.836586 55.826397l22.771652 0l0 36.976376l-22.771652 0z" fill-rule="evenodd"/><path fill="#000000" d="m114.180336 69.4014q2.296875 0 3.453125 1.78125q1.171875 1.765625 1.171875 5.671875q0 3.765625 -1.15625 5.59375q-1.140625 1.828125 -3.46875 1.828125q-2.3125 0 -3.46875 -1.8125q-1.15625 -1.8125 -1.15625 -5.609375q0 -3.78125 1.15625 -5.609375q1.171875 -1.84375 3.46875 -1.84375zm-2.796875 6.625l5.5625 0q-0.078125 -2.546875 -0.703125 -3.828125q-0.609375 -1.28125 -2.078125 -1.28125q-1.109375 0 -1.71875 0.671875q-0.609375 0.65625 -0.84375 2.0q-0.21875 1.328125 -0.21875 2.4375zm2.796875 6.734375q1.515625 0 2.09375 -1.09375q0.578125 -1.09375 0.703125 -4.296875l-5.59375 0q0.03125 2.84375 0.59375 4.125q0.578125 1.265625 2.203125 1.265625z" fill-rule="nonzero"/></g></svg>