<svg version="1.1" viewBox="0.0 0.0 100.0 417.90288713910763" fill="none" stroke="none" stroke-linecap="square" stroke-miterlimit="10" xmlns:xlink="http://www.w3.org/1999/xlink" xmlns="http://www.w3.org/2000/svg"><clipPath id="p.0"><path d="m0 0l100.0 0l0 417.9029l-100.0 0l0 -417.9029z" clip-rule="nonzero"/></clipPath><g clip-path="url(#p.0)"><path fill="#000000" fill-opacity="0.0" d="m0 0l100.0 0l0 417.9029l-100.0 0z" fill-rule="evenodd"/><path fill="#000000" d="m44.377953 212.25066l0 0c0 -3.1049652 2.5170746 -5.62204 5.6220474 -5.62204l0 0c1.4910583 0 2.921051 0.5923157 3.9753876 1.6466522c1.0543404 1.0543365 1.6466599 2.4843292 1.6466599 3.9753876l0 0c0 3.1049652 -2.5170746 5.62204 -5.6220474 5.62204l0 0c-3.1049728 0 -5.6220474 -2.5170746 -5.6220474 -5.62204z" fill-rule="evenodd"/><path stroke="#000000" stroke-width="1.0" stroke-linejoin="round" stroke-linecap="butt" d="m44.377953 212.25066l0 0c0 -3.1049652 2.5170746 -5.62204 5.6220474 -5.62204l0 0c1.4910583 0 2.921051 0.5923157 3.9753876 1.6466522c1.0543404 1.0543365 1.6466599 2.4843292 1.6466599 3.9753876l0 0c0 3.1049652 -2.5170746 5.62204 -5.6220474 5.62204l0 0c-3.1049728 0 -5.6220474 -2.5170746 -5.6220474 -5.62204z" fill-rule="evenodd"/><path fill="#000000" fill-opacity="0.0" d="m50.0 206.62862l0 -150.29922" fill-rule="evenodd"/><path stroke="#000000" stroke-width="3.0" stroke-linejoin="round" stroke-linecap="butt" d="m50.0 206.62862l0 -132.29922" fill-rule="evenodd"/><path fill="#000000" stroke="#000000" stroke-width="3.0" stroke-linecap="butt" d="m54.955196 74.3294l-4.9551964 -13.614296l-4.9551964 13.614296z" fill-rule="evenodd"/><path fill="#000000" fill-opacity="0.0" d="m35.65354 145.4702l28.692917 -21.385826" fill-rule="evenodd"/><path stroke="#000000" stroke-width="3.0" stroke-linejoin="round" stroke-linecap="butt" d="m35.65354 145.4702l28.692917 -21.385826" fill-rule="evenodd"/><path fill="#000000" fill-opacity="0.0" d="m50.0 217.8727l0 150.29921" fill-rule="evenodd"/><path stroke="#000000" stroke-width="3.0" stroke-linejoin="round" stroke-linecap="butt" d="m50.0 217.8727l0 132.29921" fill-rule="evenodd"/><path fill="#000000" stroke="#000000" stroke-width="3.0" stroke-linecap="butt" d="m45.044804 350.1719l4.9551964 13.614319l4.9551964 -13.614319z" fill-rule="evenodd"/><path fill="#000000" fill-opacity="0.0" d="m64.34646 279.02896l-28.692917 21.385834" fill-rule="evenodd"/><path stroke="#000000" stroke-width="3.0" stroke-linejoin="round" stroke-linecap="butt" d="m64.34646 279.02896l-28.692917 21.385834" fill-rule="evenodd"/><path fill="#000000" fill-opacity="0.0" d="m26.220472 4.5813646l47.55905 0l0 51.74803l-47.55905 0z" fill-rule="evenodd"/><path fill="#000000" d="m51.82419 20.150114l0 2.140625l-9.96875 0l0 6.03125l8.75 0l0 2.140625l-8.75 0l0 8.718748l-2.53125 0l0 -19.031248l12.5 0z" fill-rule="nonzero"/><path fill="#000000" d="m62.74008 36.493862l0 1.421875l-4.234375 0l0 11.265625l-1.6875 0l0 -11.265625l-4.234375 0l0 -1.421875l10.15625 0z" fill-rule="nonzero"/><path fill="#000000" fill-opacity="0.0" d="m16.818897 361.5735l66.3622 0l0 51.748047l-66.3622 0z" fill-rule="evenodd"/><path fill="#000000" d="m46.883987 377.14224l0 2.140625l-9.96875 0l0 6.03125l8.75 0l0 2.140625l-8.75 0l0 8.71875l-2.53125 0l0 -19.03125l12.5 0z" fill-rule="nonzero"/><path fill="#000000" d="m52.48738 396.78287q0.96875 0 1.671875 0.421875q0.703125 0.40625 1.078125 1.09375l0.015625 0l0 -1.3125l1.421875 0l0 8.5q0 2.15625 -1.046875 3.28125q-1.046875 1.140625 -3.203125 1.140625q-1.578125 0 -2.671875 -0.703125q-1.078125 -0.6875 -1.140625 -2.0l1.5 0q0.046875 0.703125 0.75 1.09375q0.71875 0.40625 1.640625 0.40625q1.328125 0 2.03125 -0.890625q0.71875 -0.890625 0.71875 -2.625l0 -0.578125l-0.03125 0q-0.359375 0.765625 -1.125 1.21875q-0.765625 0.453125 -1.75 0.453125q-1.859375 0 -2.984375 -1.28125q-1.109375 -1.296875 -1.109375 -3.375q0 -2.109375 1.109375 -3.46875q1.125 -1.375 3.125 -1.375zm-2.640625 4.65625q0 1.640625 0.6875 2.578125q0.6875 0.9375 1.90625 0.9375q1.25 0 1.984375 -0.96875q0.75 -0.96875 0.75 -2.59375q0 -1.46875 -0.6875 -2.375q-0.6875 -0.90625 -1.9375 -0.90625q-1.265625 0 -1.984375 0.90625q-0.71875 0.90625 -0.71875 2.421875zm14.295105 -7.859375l0 12.59375l-1.515625 0l0 -9.015625l-3.265625 0l0 -1.21875l0.046875 0q1.59375 0 2.46875 -0.5625q0.875 -0.578125 1.109375 -1.796875l1.15625 0z" fill-rule="nonzero"/></g></svg>